<?xml version="1.0" encoding="UTF-8"?>
<svg width="151px" height="43px" viewBox="0 0 151 43" version="1.1" xmlns="http://www.w3.org/2000/svg" xmlns:xlink="http://www.w3.org/1999/xlink">
    <!-- Generator: sketchtool 59.1 (101010) - https://sketch.com -->
    <title>6094B8D3-C009-49C0-9929-38AAA8B1F6BA</title>
    <desc>Created with sketchtool.</desc>
    <defs>
        <linearGradient x1="-0.131303638%" y1="50.0396511%" x2="100%" y2="50.0396511%" id="linearGradient-1">
            <stop stop-color="#FF7F48" offset="0%"></stop>
            <stop stop-color="#F86424" offset="100%"></stop>
        </linearGradient>
    </defs>
    <g id="Symbols" stroke="none" stroke-width="1" fill="none" fill-rule="evenodd">
        <g id="Footer" transform="translate(-166.000000, -973.000000)" fill-rule="nonzero">
            <g id="Group-34" transform="translate(166.000000, 973.000000)">
                <g id="Group">
                    <g id="Asset-1TA" fill="url(#linearGradient-1)">
                        <path d="M35.1946392,0.00252290847 C40.1294606,0.00204520153 44.8624171,1.96187785 48.3521238,5.45106253 C51.8418305,8.94024721 53.8023711,13.6729105 53.8023711,18.607732 C53.8023711,26.3319588 48.8115464,31.9240206 43.0719588,36.5028866 C41.6802062,37.6135052 37.9280412,40.3580412 35.3616495,42.2229897 C34.8678133,42.5822973 34.2140665,42.6339219 33.6699557,42.3565782 C33.1258449,42.0792345 32.7835195,41.5198926 32.7841237,40.9091753 L32.7841237,40.9091753 L32.7841237,40.0323711 C32.7841237,38.4120702 31.4706102,37.0985567 29.8503093,37.0985567 L29.8503093,37.0985567 L19.9438144,37.0985567 C19.4479403,37.0985986 18.9751534,36.8890284 18.6421734,36.5215839 C18.3091933,36.1541394 18.1470502,35.6630623 18.1957732,35.1695876 C18.3107582,34.2544096 19.0967299,33.5728342 20.0189691,33.5885567 L20.0189691,33.5885567 L24.1524742,33.5885567 L24.1524742,33.5885567 L24.3166843,33.5707267 C25.5618014,33.3931976 26.4792703,32.2875337 26.4043299,31.0138144 C26.2975015,29.6994006 25.1899514,28.6928688 23.8713402,28.7118557 L23.8713402,28.7118557 L13.786701,28.7118557 C13.2913614,28.7118207 12.8190652,28.5026272 12.4861804,28.1358178 C12.1532956,27.7690085 11.9907743,27.2786897 12.0386598,26.7856701 C12.1535472,25.8700273 12.9391439,25.1875776 13.8618557,25.2018557 L13.8618557,25.2018557 L17.8561856,25.2018557 C18.5043528,25.2018557 19.1259728,24.9443722 19.5842962,24.4860488 C20.0426197,24.0277254 20.3001031,23.4061054 20.3001031,22.7579381 L20.3001031,22.7579381 L20.2947298,22.5973831 C20.2106608,21.3236362 19.1508916,20.3168033 17.8561856,20.3168041 L17.8561856,20.3168041 L13.4749485,20.3168041 C12.5060073,20.3152686 11.7213402,19.5293548 11.7213402,18.5604124 L11.7213402,18.5604124 L11.7271502,18.4165189 C11.8002676,17.5148395 12.5544543,16.8054794 13.4749485,16.8040206 L13.4749485,16.8040206 L17.8561856,16.8040206 C18.6467744,16.8031508 19.3884519,16.4211827 19.8482859,15.7780776 C20.3081198,15.1349725 20.429701,14.3096221 20.1748454,13.5612371 C19.8395325,12.5691756 18.9033026,11.9060596 17.8561856,11.9189691 L17.8561856,11.9189691 L13.786701,11.9189691 C13.2870602,11.9195898 12.8108023,11.7073859 12.4771474,11.3354776 C12.1434925,10.9635693 11.9840235,10.4671604 12.0386598,9.97051546 C12.1587269,9.05930226 12.9428877,8.38288878 13.8618557,8.39783505 L13.8618557,8.39783505 L24.1357732,8.39783505 C25.4666086,8.42200044 26.5839846,7.40120296 26.6798969,6.07360825 C26.7116809,5.42616909 26.4849484,4.79262455 26.0495852,4.31236777 C25.614222,3.832111 25.0058966,3.54448858 24.3584536,3.51278351 L24.3584536,3.51278351 L21.8310309,3.51278351 C21.3358924,3.51282926 20.86381,3.30355256 20.5313513,2.93662837 C20.1988925,2.56970419 20.0370453,2.07933293 20.0857732,1.58659794 C20.1994554,0.670312542 20.9857896,-0.0127777546 21.9089691,0.00252290847 L21.9089691,0.00252290847 Z M8.63721649,25.1907194 C9.10352322,25.1907194 9.55069069,25.376151 9.88015817,25.7061406 C10.1684422,25.9948815 10.3459052,26.3735611 10.3852729,26.7761081 L10.3936105,26.9498969 C10.3905406,27.9177505 9.60507497,28.7007239 8.63721649,28.7007239 L6.55237113,28.7007239 C6.08680322,28.7014606 5.64005068,28.5170323 5.31058307,28.1880868 C5.02229892,27.9002596 4.84451689,27.5224606 4.80457582,27.1206137 L4.79597717,26.9471134 C4.79523903,26.4810628 4.98004916,26.0338874 5.30959713,25.7043394 C5.63914511,25.3747914 6.08632051,25.1899813 6.55237113,25.1907194 L8.63721649,25.1907194 Z M35.6205155,11.7909278 L31.6512371,11.7909278 C30.7571713,11.7924601 30.0327694,12.516862 30.0312371,13.4109278 L30.0312371,13.4109278 L30.0312371,23.8045361 C30.0312371,24.6992374 30.7565358,25.4245361 31.6512371,25.4245361 L31.6512371,25.4245361 L35.5481443,25.4245361 C39.69,25.4245361 42.671134,22.5603093 42.671134,18.607732 C42.671134,14.6551546 39.712268,11.7909278 35.6205155,11.7909278 L35.6205155,11.7909278 Z M8.63860825,16.7928866 C9.60786798,16.7928866 10.3936082,17.5786269 10.3936082,18.5478866 C10.3936082,19.5171463 9.60786798,20.3028866 8.63860825,20.3028866 L1.755,20.3028866 C0.785740264,20.3028866 1.43295548e-14,19.5171463 1.42108547e-14,18.5478866 C1.40921546e-14,17.5786269 0.785740264,16.7928866 1.755,16.7928866 L8.63860825,16.7928866 Z M8.63721649,8.40896686 C9.55771177,8.40896686 10.3130237,9.11713089 10.3875702,10.0186932 L10.3936082,10.1625773 C10.3936082,10.6284014 10.2085604,11.0751465 9.87917301,11.4045338 C9.54978567,11.7339212 9.10304055,11.9189713 8.63721649,11.9189713 L6.55237113,11.9189713 C6.08632051,11.9197094 5.63914511,11.7348993 5.30959713,11.4053513 C5.02124266,11.1169968 4.84370309,10.7385839 4.80431823,10.3362687 L4.79597717,10.1625773 C4.79597717,9.69700882 4.98111547,9.25054935 5.31058307,8.92160388 C5.64005068,8.59265841 6.08680322,8.40823007 6.55237113,8.40896686 L8.63721649,8.40896686 Z M16.9543299,-5.06261699e-14 C17.4198984,-5.06261699e-14 17.8663579,0.185136084 18.1953033,0.514603691 C18.4831306,0.802887847 18.660312,1.18096828 18.6996164,1.58287808 L18.7079404,1.75639175 C18.7079404,2.72488284 17.922821,3.51 16.9543299,3.51 L14.866701,3.51 C13.9466345,3.51 13.1920609,2.80143177 13.1189037,1.90021489 L13.1130906,1.75639175 C13.1123538,1.29082384 13.2967821,0.844071298 13.6257276,0.514603691 C13.9546731,0.185136084 14.4011325,-5.06261699e-14 14.866701,-5.06261699e-14 L16.9543299,-5.06261699e-14 Z" id="Combined-Shape"></path>
                    </g>
                    <path d="M77.4,8.28 C81.266686,8.28 84.499987,9.6199866 87.1,12.3 C89.700013,14.9800134 91,18.3066468 91,22.28 C91,26.2533532 89.700013,29.5799866 87.1,32.26 C84.499987,34.9400134 81.266686,36.28 77.4,36.28 L66,36.28 L66,8.28 L77.4,8.28 Z M77.4,29.36 C79.3466764,29.36 80.9333272,28.7133398 82.16,27.42 C83.3866728,26.1266602 84,24.413344 84,22.28 C84,20.146656 83.3866728,18.4333398 82.16,17.14 C80.9333272,15.8466602 79.3466764,15.2 77.4,15.2 L73.36,15.2 L73.36,29.36 L77.4,29.36 Z M100.04,13.52 C99.2933296,14.2666704 98.4000052,14.64 97.36,14.64 C96.3199948,14.64 95.4200038,14.2600038 94.66,13.5 C93.8999962,12.7399962 93.52,11.8400052 93.52,10.8 C93.52,9.7599948 93.8999962,8.8666704 94.66,8.12 C95.4200038,7.3733296 96.3199948,7 97.36,7 C98.4000052,7 99.2999962,7.3733296 100.06,8.12 C100.820004,8.8666704 101.2,9.7599948 101.2,10.8 C101.2,11.8400052 100.813337,12.7466628 100.04,13.52 Z M94.04,36.28 L94.04,16.28 L100.68,16.28 L100.68,36.28 L94.04,36.28 Z M104.52,36.28 L104.52,7.08 L111.16,7.08 L111.16,36.28 L104.52,36.28 Z M120.92,28.72 C121.58667,30.3466748 123.079988,31.16 125.4,31.16 C126.840007,31.16 128.053328,30.693338 129.04,29.76 L133.84,33.12 C131.866657,35.6000124 129.000019,36.84 125.24,36.84 C121.853316,36.84 119.14001,35.8466766 117.1,33.86 C115.05999,31.8733234 114.04,29.3600152 114.04,26.32 C114.04,23.3066516 115.03999,20.7866768 117.04,18.76 C119.04,16.7333232 121.586651,15.72 124.68,15.72 C127.666682,15.72 130.133324,16.71999 132.08,18.72 C134.026676,20.72001 135,23.2266516 135,26.24 C135,27.1200044 134.906668,27.9466628 134.72,28.72 L120.92,28.72 Z M120.84,24.12 L128.52,24.12 C127.986664,22.253324 126.733343,21.32 124.76,21.32 C122.706656,21.32 121.400003,22.253324 120.84,24.12 Z M144.48,20 C144.853335,18.6933268 145.599994,17.6800036 146.72,16.96 C147.84,16.2399964 149.093326,15.88 150.48,15.88 L150.48,23.24 C148.959992,22.9999988 147.580006,23.279996 146.34,24.08 C145.099994,24.88 144.48,26.1866576 144.48,28 L144.48,36.28 L137.84,36.28 L137.84,16.28 L144.48,16.28 L144.48,20 Z" id="Diler" fill="#333333"></path>
                </g>
            </g>
        </g>
    </g>
</svg>