<?xml version="1.0" encoding="UTF-8"?>
<svg width="28px" height="45px" viewBox="0 0 28 45" version="1.1" xmlns="http://www.w3.org/2000/svg" xmlns:xlink="http://www.w3.org/1999/xlink">
    <!-- Generator: sketchtool 59.1 (101010) - https://sketch.com -->
    <title>177BB778-3E81-4E39-B4DF-630B0E4C0646</title>
    <desc>Created with sketchtool.</desc>
    <g id="Page-1" stroke="none" stroke-width="1" fill="none" fill-rule="evenodd">
        <g id="Home" transform="translate(-708.000000, -628.000000)">
            <g id="Group-4" transform="translate(0.000000, -2.000000)">
                <g id="Group-13" transform="translate(706.000000, 628.000000)">
                    <path d="M15.99972,2.498816 C8.54387078,2.498816 2.499376,8.54339697 2.499376,15.99912 L2.499376,32.99904 C2.499376,40.4552615 8.54360129,46.499344 15.99972,46.499344 C23.4557699,46.499344 29.499723,40.4553304 29.499723,32.99904 L29.499723,15.99912 C29.499723,8.54332815 23.4555004,2.498816 15.99972,2.498816 Z" id="Rounded-Rectangle-1" stroke="#FFFFFF" fill-opacity="0" fill="#000000"></path>
                    <path d="M15.999725,11.99896 C17.656724,11.99896 18.999749,13.342012 18.999749,14.999344 L18.999749,17.998984 C18.999749,19.655944 17.656724,20.998996 15.999725,20.998996 C14.343068,20.998996 12.999359,19.655944 12.999359,17.998984 L12.999359,14.999344 C12.999359,13.342012 14.343068,11.99896 15.999725,11.99896 Z" id="Rounded-Rectangle-1-copy" fill="#FFFFFF"></path>
                </g>
            </g>
        </g>
    </g>
</svg>